<?xml version="1.0" encoding="us-ascii" standalone="no"?><svg xmlns="http://www.w3.org/2000/svg" xmlns:xlink="http://www.w3.org/1999/xlink" contentStyleType="text/css" height="653px" preserveAspectRatio="none" style="width:1103px;height:653px;background:#FFFFFF;" version="1.1" viewBox="0 0 1103 653" width="1103px" zoomAndPan="magnify"><defs/><g><!--class User--><g id="elem_User"><rect codeLine="6" fill="#F1F1F1" height="105.2038" id="User" rx="2.5" ry="2.5" style="stroke:#181818;stroke-width:0.5;" width="104" x="240.5" y="375"/><ellipse cx="273.95" cy="391" fill="#ADD1B2" rx="11" ry="11" style="stroke:#181818;stroke-width:1.0;"/><path d="M276.9188,396.6406 Q276.3406,396.9375 275.7,397.0781 Q275.0594,397.2344 274.3563,397.2344 Q271.8563,397.2344 270.5281,395.5938 Q269.2156,393.9375 269.2156,390.8125 Q269.2156,387.6875 270.5281,386.0313 Q271.8563,384.375 274.3563,384.375 Q275.0594,384.375 275.7,384.5313 Q276.3563,384.6875 276.9188,384.9844 L276.9188,387.7031 Q276.2938,387.125 275.7,386.8594 Q275.1063,386.5781 274.4813,386.5781 Q273.1375,386.5781 272.45,387.6563 Q271.7625,388.7188 271.7625,390.8125 Q271.7625,392.9063 272.45,393.9844 Q273.1375,395.0469 274.4813,395.0469 Q275.1063,395.0469 275.7,394.7813 Q276.2938,394.5 276.9188,393.9219 L276.9188,396.6406 Z " fill="#000000"/><text fill="#000000" font-family="sans-serif" font-size="14" lengthAdjust="spacing" textLength="31" x="292.05" y="396.432">User</text><line style="stroke:#181818;stroke-width:0.5;" x1="241.5" x2="343.5" y1="407" y2="407"/><text fill="#000000" font-family="sans-serif" font-size="14" lengthAdjust="spacing" textLength="67" x="246.5" y="425.9659">+ID string</text><text fill="#000000" font-family="sans-serif" font-size="14" lengthAdjust="spacing" textLength="92" x="246.5" y="445.0339">+Name string</text><text fill="#000000" font-family="sans-serif" font-size="14" lengthAdjust="spacing" textLength="89" x="246.5" y="464.1018">+Email string</text><line style="stroke:#181818;stroke-width:0.5;" x1="241.5" x2="343.5" y1="472.2038" y2="472.2038"/></g><!--class RegisterUserDTO--><g id="elem_RegisterUserDTO"><rect codeLine="12" fill="#F1F1F1" height="105.2038" id="RegisterUserDTO" rx="2.5" ry="2.5" style="stroke:#181818;stroke-width:0.5;" width="148" x="666.5" y="7"/><ellipse cx="681.5" cy="23" fill="#ADD1B2" rx="11" ry="11" style="stroke:#181818;stroke-width:1.0;"/><path d="M684.4688,28.6406 Q683.8906,28.9375 683.25,29.0781 Q682.6094,29.2344 681.9063,29.2344 Q679.4063,29.2344 678.0781,27.5938 Q676.7656,25.9375 676.7656,22.8125 Q676.7656,19.6875 678.0781,18.0313 Q679.4063,16.375 681.9063,16.375 Q682.6094,16.375 683.25,16.5313 Q683.9063,16.6875 684.4688,16.9844 L684.4688,19.7031 Q683.8438,19.125 683.25,18.8594 Q682.6563,18.5781 682.0313,18.5781 Q680.6875,18.5781 680,19.6563 Q679.3125,20.7188 679.3125,22.8125 Q679.3125,24.9063 680,25.9844 Q680.6875,27.0469 682.0313,27.0469 Q682.6563,27.0469 683.25,26.7813 Q683.8438,26.5 684.4688,25.9219 L684.4688,28.6406 Z " fill="#000000"/><text fill="#000000" font-family="sans-serif" font-size="14" lengthAdjust="spacing" textLength="116" x="695.5" y="28.432">RegisterUserDTO</text><line style="stroke:#181818;stroke-width:0.5;" x1="667.5" x2="813.5" y1="39" y2="39"/><text fill="#000000" font-family="sans-serif" font-size="14" lengthAdjust="spacing" textLength="92" x="672.5" y="57.9659">+Name string</text><text fill="#000000" font-family="sans-serif" font-size="14" lengthAdjust="spacing" textLength="89" x="672.5" y="77.0339">+Email string</text><text fill="#000000" font-family="sans-serif" font-size="14" lengthAdjust="spacing" textLength="116" x="672.5" y="96.1018">+Password string</text><line style="stroke:#181818;stroke-width:0.5;" x1="667.5" x2="813.5" y1="104.2038" y2="104.2038"/></g><!--class UserController--><g id="elem_UserController"><rect codeLine="18" fill="#F1F1F1" height="105.2038" id="UserController" rx="2.5" ry="2.5" style="stroke:#181818;stroke-width:0.5;" width="227" x="404" y="7"/><ellipse cx="464.25" cy="23" fill="#ADD1B2" rx="11" ry="11" style="stroke:#181818;stroke-width:1.0;"/><path d="M467.2188,28.6406 Q466.6406,28.9375 466,29.0781 Q465.3594,29.2344 464.6563,29.2344 Q462.1563,29.2344 460.8281,27.5938 Q459.5156,25.9375 459.5156,22.8125 Q459.5156,19.6875 460.8281,18.0313 Q462.1563,16.375 464.6563,16.375 Q465.3594,16.375 466,16.5313 Q466.6563,16.6875 467.2188,16.9844 L467.2188,19.7031 Q466.5938,19.125 466,18.8594 Q465.4063,18.5781 464.7813,18.5781 Q463.4375,18.5781 462.75,19.6563 Q462.0625,20.7188 462.0625,22.8125 Q462.0625,24.9063 462.75,25.9844 Q463.4375,27.0469 464.7813,27.0469 Q465.4063,27.0469 466,26.7813 Q466.5938,26.5 467.2188,25.9219 L467.2188,28.6406 Z " fill="#000000"/><text fill="#000000" font-family="sans-serif" font-size="14" lengthAdjust="spacing" textLength="98" x="484.75" y="28.432">UserController</text><line style="stroke:#181818;stroke-width:0.5;" x1="405" x2="630" y1="39" y2="39"/><text fill="#000000" font-family="sans-serif" font-size="14" lengthAdjust="spacing" textLength="128" x="410" y="57.9659">-validator Validator</text><text fill="#000000" font-family="sans-serif" font-size="14" lengthAdjust="spacing" textLength="215" x="410" y="77.0339">-usecase *RegisterUserUseCase</text><line style="stroke:#181818;stroke-width:0.5;" x1="405" x2="630" y1="85.1358" y2="85.1358"/><text fill="#000000" font-family="sans-serif" font-size="14" lengthAdjust="spacing" textLength="215" x="410" y="104.1018">+Handle(req Request) Response</text></g><!--class RegisterUserUseCase--><g id="elem_RegisterUserUseCase"><rect codeLine="24" fill="#F1F1F1" height="105.2038" id="RegisterUserUseCase" rx="2.5" ry="2.5" style="stroke:#181818;stroke-width:0.5;" width="307" x="364" y="191"/><ellipse cx="441.25" cy="207" fill="#ADD1B2" rx="11" ry="11" style="stroke:#181818;stroke-width:1.0;"/><path d="M444.2188,212.6406 Q443.6406,212.9375 443,213.0781 Q442.3594,213.2344 441.6563,213.2344 Q439.1563,213.2344 437.8281,211.5938 Q436.5156,209.9375 436.5156,206.8125 Q436.5156,203.6875 437.8281,202.0313 Q439.1563,200.375 441.6563,200.375 Q442.3594,200.375 443,200.5313 Q443.6563,200.6875 444.2188,200.9844 L444.2188,203.7031 Q443.5938,203.125 443,202.8594 Q442.4063,202.5781 441.7813,202.5781 Q440.4375,202.5781 439.75,203.6563 Q439.0625,204.7188 439.0625,206.8125 Q439.0625,208.9063 439.75,209.9844 Q440.4375,211.0469 441.7813,211.0469 Q442.4063,211.0469 443,210.7813 Q443.5938,210.5 444.2188,209.9219 L444.2188,212.6406 Z " fill="#000000"/><text fill="#000000" font-family="sans-serif" font-size="14" lengthAdjust="spacing" textLength="144" x="461.75" y="212.432">RegisterUserUseCase</text><line style="stroke:#181818;stroke-width:0.5;" x1="365" x2="670" y1="223" y2="223"/><text fill="#000000" font-family="sans-serif" font-size="14" lengthAdjust="spacing" textLength="142" x="370" y="241.9659">-repo UserRepository</text><text fill="#000000" font-family="sans-serif" font-size="14" lengthAdjust="spacing" textLength="146" x="370" y="261.0339">-notifier EmailNotifier</text><line style="stroke:#181818;stroke-width:0.5;" x1="365" x2="670" y1="269.1358" y2="269.1358"/><text fill="#000000" font-family="sans-serif" font-size="14" lengthAdjust="spacing" textLength="295" x="370" y="288.1018">+Execute(dto RegisterUserDTO) (User, error)</text></g><!--class UserRepository--><g id="elem_UserRepository"><rect codeLine="30" fill="#F1F1F1" height="86.1358" id="UserRepository" rx="2.5" ry="2.5" style="stroke:#181818;stroke-width:0.5;" width="276" x="379.5" y="384.5"/><ellipse cx="465.75" cy="400.5" fill="#B4A7E5" rx="11" ry="11" style="stroke:#181818;stroke-width:1.0;"/><path d="M461.6719,396.2656 L461.6719,394.1094 L469.0625,394.1094 L469.0625,396.2656 L466.5938,396.2656 L466.5938,404.3438 L469.0625,404.3438 L469.0625,406.5 L461.6719,406.5 L461.6719,404.3438 L464.1406,404.3438 L464.1406,396.2656 L461.6719,396.2656 Z " fill="#000000"/><text fill="#000000" font-family="sans-serif" font-size="14" font-style="italic" lengthAdjust="spacing" textLength="95" x="486.25" y="405.932">UserRepository</text><line style="stroke:#181818;stroke-width:0.5;" x1="380.5" x2="654.5" y1="416.5" y2="416.5"/><line style="stroke:#181818;stroke-width:0.5;" x1="380.5" x2="654.5" y1="424.5" y2="424.5"/><text fill="#000000" font-family="sans-serif" font-size="14" lengthAdjust="spacing" textLength="129" x="385.5" y="443.4659">+Save(u User) error</text><text fill="#000000" font-family="sans-serif" font-size="14" lengthAdjust="spacing" textLength="264" x="385.5" y="462.5339">+FindByEmail(email string) (User, error)</text></g><!--class PostgresUserRepo--><g id="elem_PostgresUserRepo"><rect codeLine="35" fill="#F1F1F1" height="105.2038" id="PostgresUserRepo" rx="2.5" ry="2.5" style="stroke:#181818;stroke-width:0.5;" width="276" x="266.5" y="541"/><ellipse cx="338.75" cy="557" fill="#ADD1B2" rx="11" ry="11" style="stroke:#181818;stroke-width:1.0;"/><path d="M341.7188,562.6406 Q341.1406,562.9375 340.5,563.0781 Q339.8594,563.2344 339.1563,563.2344 Q336.6563,563.2344 335.3281,561.5938 Q334.0156,559.9375 334.0156,556.8125 Q334.0156,553.6875 335.3281,552.0313 Q336.6563,550.375 339.1563,550.375 Q339.8594,550.375 340.5,550.5313 Q341.1563,550.6875 341.7188,550.9844 L341.7188,553.7031 Q341.0938,553.125 340.5,552.8594 Q339.9063,552.5781 339.2813,552.5781 Q337.9375,552.5781 337.25,553.6563 Q336.5625,554.7188 336.5625,556.8125 Q336.5625,558.9063 337.25,559.9844 Q337.9375,561.0469 339.2813,561.0469 Q339.9063,561.0469 340.5,560.7813 Q341.0938,560.5 341.7188,559.9219 L341.7188,562.6406 Z " fill="#000000"/><text fill="#000000" font-family="sans-serif" font-size="14" lengthAdjust="spacing" textLength="123" x="359.25" y="562.432">PostgresUserRepo</text><line style="stroke:#181818;stroke-width:0.5;" x1="267.5" x2="541.5" y1="573" y2="573"/><text fill="#000000" font-family="sans-serif" font-size="14" lengthAdjust="spacing" textLength="78" x="272.5" y="591.9659">-db *sql.DB</text><line style="stroke:#181818;stroke-width:0.5;" x1="267.5" x2="541.5" y1="600.0679" y2="600.0679"/><text fill="#000000" font-family="sans-serif" font-size="14" lengthAdjust="spacing" textLength="129" x="272.5" y="619.0339">+Save(u User) error</text><text fill="#000000" font-family="sans-serif" font-size="14" lengthAdjust="spacing" textLength="264" x="272.5" y="638.1018">+FindByEmail(email string) (User, error)</text></g><!--class EmailNotifier--><g id="elem_EmailNotifier"><rect codeLine="41" fill="#F1F1F1" height="67.0679" id="EmailNotifier" rx="2.5" ry="2.5" style="stroke:#181818;stroke-width:0.5;" width="218" x="840.5" y="394"/><ellipse cx="903.75" cy="410" fill="#B4A7E5" rx="11" ry="11" style="stroke:#181818;stroke-width:1.0;"/><path d="M899.6719,405.7656 L899.6719,403.6094 L907.0625,403.6094 L907.0625,405.7656 L904.5938,405.7656 L904.5938,413.8438 L907.0625,413.8438 L907.0625,416 L899.6719,416 L899.6719,413.8438 L902.1406,413.8438 L902.1406,405.7656 L899.6719,405.7656 Z " fill="#000000"/><text fill="#000000" font-family="sans-serif" font-size="14" font-style="italic" lengthAdjust="spacing" textLength="83" x="924.25" y="415.432">EmailNotifier</text><line style="stroke:#181818;stroke-width:0.5;" x1="841.5" x2="1057.5" y1="426" y2="426"/><line style="stroke:#181818;stroke-width:0.5;" x1="841.5" x2="1057.5" y1="434" y2="434"/><text fill="#000000" font-family="sans-serif" font-size="14" lengthAdjust="spacing" textLength="206" x="846.5" y="452.9659">+SendWelcome(to string) error</text></g><!--class SMTPNotifier--><g id="elem_SMTPNotifier"><rect codeLine="45" fill="#F1F1F1" height="86.1358" id="SMTPNotifier" rx="2.5" ry="2.5" style="stroke:#181818;stroke-width:0.5;" width="218" x="878.5" y="550.5"/><ellipse cx="939.25" cy="566.5" fill="#ADD1B2" rx="11" ry="11" style="stroke:#181818;stroke-width:1.0;"/><path d="M942.2188,572.1406 Q941.6406,572.4375 941,572.5781 Q940.3594,572.7344 939.6563,572.7344 Q937.1563,572.7344 935.8281,571.0938 Q934.5156,569.4375 934.5156,566.3125 Q934.5156,563.1875 935.8281,561.5313 Q937.1563,559.875 939.6563,559.875 Q940.3594,559.875 941,560.0313 Q941.6563,560.1875 942.2188,560.4844 L942.2188,563.2031 Q941.5938,562.625 941,562.3594 Q940.4063,562.0781 939.7813,562.0781 Q938.4375,562.0781 937.75,563.1563 Q937.0625,564.2188 937.0625,566.3125 Q937.0625,568.4063 937.75,569.4844 Q938.4375,570.5469 939.7813,570.5469 Q940.4063,570.5469 941,570.2813 Q941.5938,570 942.2188,569.4219 L942.2188,572.1406 Z " fill="#000000"/><text fill="#000000" font-family="sans-serif" font-size="14" lengthAdjust="spacing" textLength="88" x="959.75" y="571.932">SMTPNotifier</text><line style="stroke:#181818;stroke-width:0.5;" x1="879.5" x2="1095.5" y1="582.5" y2="582.5"/><text fill="#000000" font-family="sans-serif" font-size="14" lengthAdjust="spacing" textLength="122" x="884.5" y="601.4659">-client SMTPClient</text><line style="stroke:#181818;stroke-width:0.5;" x1="879.5" x2="1095.5" y1="609.5679" y2="609.5679"/><text fill="#000000" font-family="sans-serif" font-size="14" lengthAdjust="spacing" textLength="206" x="884.5" y="628.5339">+SendWelcome(to string) error</text></g><g id="elem_GMN16"><path d="M6,37 L6,82.412 A0,0 0 0 0 6,82.412 L369,82.412 A0,0 0 0 0 369,82.412 L369,63.5 L403.71,59.5 L369,55.5 L369,47 L359,37 L6,37 A0,0 0 0 0 6,37 " fill="#FEFFDD" style="stroke:#181818;stroke-width:0.5;"/><path d="M359,37 L359,47 L369,47 L359,37 " fill="#FEFFDD" style="stroke:#181818;stroke-width:0.5;"/><text fill="#000000" font-family="sans-serif" font-size="13" lengthAdjust="spacing" textLength="232" x="12" y="55.897">Local: cmd/http handlers or controllers</text><text fill="#000000" font-family="sans-serif" font-size="13" lengthAdjust="spacing" textLength="342" x="12" y="73.603">Constructor inject: NewUserController(validator, usecase)</text></g><g id="elem_GMN19"><path d="M577.5,571 L577.5,589.5 L542.56,593.5 L577.5,597.5 L577.5,616.412 A0,0 0 0 0 577.5,616.412 L843.5,616.412 A0,0 0 0 0 843.5,616.412 L843.5,581 L833.5,571 L577.5,571 A0,0 0 0 0 577.5,571 " fill="#FEFFDD" style="stroke:#181818;stroke-width:0.5;"/><path d="M833.5,571 L833.5,581 L843.5,581 L833.5,571 " fill="#FEFFDD" style="stroke:#181818;stroke-width:0.5;"/><text fill="#000000" font-family="sans-serif" font-size="13" lengthAdjust="spacing" textLength="217" x="583.5" y="589.897">Impl: adapters/persistence/postgres</text><text fill="#000000" font-family="sans-serif" font-size="13" lengthAdjust="spacing" textLength="245" x="583.5" y="607.603">Side-effects confined to adapters (DB I/O)</text></g><!--link UserController to RegisterUserUseCase--><g id="link_UserController_RegisterUserUseCase"><path codeLine="51" d="M517.5,112.17 C517.5,136.76 517.5,160.1 517.5,184.7 " fill="none" id="UserController-to-RegisterUserUseCase" style="stroke:#181818;stroke-width:1.0;"/><polygon fill="#181818" points="517.5,190.7,521.5,181.7,517.5,185.7,513.5,181.7,517.5,190.7" style="stroke:#181818;stroke-width:1.0;"/><text fill="#000000" font-family="sans-serif" font-size="13" lengthAdjust="spacing" textLength="27" x="518.5" y="156.897">uses</text></g><!--link RegisterUserUseCase to UserRepository--><g id="link_RegisterUserUseCase_UserRepository"><path codeLine="52" d="M517.5,296.17 C517.5,324.02 517.5,351.95 517.5,378.21 " fill="none" id="RegisterUserUseCase-to-UserRepository" style="stroke:#181818;stroke-width:1.0;stroke-dasharray:7.0,7.0;"/><polygon fill="#181818" points="517.5,384.21,521.5,375.21,517.5,379.21,513.5,375.21,517.5,384.21" style="stroke:#181818;stroke-width:1.0;"/><text fill="#000000" font-family="sans-serif" font-size="13" lengthAdjust="spacing" textLength="71" x="518.5" y="340.897">depends on</text></g><!--link RegisterUserUseCase to EmailNotifier--><g id="link_RegisterUserUseCase_EmailNotifier"><path codeLine="53" d="M639.85,296.05 C714.44,327.47 801.9908,364.3502 866.5208,391.5402 " fill="none" id="RegisterUserUseCase-to-EmailNotifier" style="stroke:#181818;stroke-width:1.0;stroke-dasharray:7.0,7.0;"/><polygon fill="#181818" points="872.05,393.87,865.3093,386.6892,867.4423,391.9285,862.203,394.0615,872.05,393.87" style="stroke:#181818;stroke-width:1.0;"/><text fill="#000000" font-family="sans-serif" font-size="13" lengthAdjust="spacing" textLength="71" x="747.5" y="340.897">depends on</text></g><!--reverse link UserRepository to PostgresUserRepo--><g id="link_UserRepository_PostgresUserRepo"><path codeLine="54" d="M478.1907,485.5546 C463.4807,506.9146 455.7,518.19 440.16,540.74 " fill="none" id="UserRepository-backto-PostgresUserRepo" style="stroke:#181818;stroke-width:1.0;stroke-dasharray:7.0,7.0;"/><polygon fill="none" points="488.4,470.73,473.2492,482.1516,483.1323,488.9577,488.4,470.73" style="stroke:#181818;stroke-width:1.0;"/></g><!--reverse link EmailNotifier to SMTPNotifier--><g id="link_EmailNotifier_SMTPNotifier"><path codeLine="55" d="M961.159,478.8264 C967.089,504.4464 971.32,522.68 977.75,550.41 " fill="none" id="EmailNotifier-backto-SMTPNotifier" style="stroke:#181818;stroke-width:1.0;stroke-dasharray:7.0,7.0;"/><polygon fill="none" points="957.1,461.29,955.3135,480.1794,967.0044,477.4734,957.1,461.29" style="stroke:#181818;stroke-width:1.0;"/></g><!--link RegisterUserUseCase to User--><g id="link_RegisterUserUseCase_User"><path codeLine="56" d="M452.66,296.13 C440.31,306.02 427.49,316.31 415.5,326 C392.23,344.8 371.233,361.9196 349.413,379.7796 " fill="none" id="RegisterUserUseCase-to-User" style="stroke:#181818;stroke-width:1.0;"/><polygon fill="#181818" points="344.77,383.58,354.268,380.9748,348.6392,380.413,349.2009,374.7841,344.77,383.58" style="stroke:#181818;stroke-width:1.0;"/><text fill="#000000" font-family="sans-serif" font-size="13" lengthAdjust="spacing" textLength="92" x="416.5" y="340.897">creates/returns</text></g><!--SRC=[hLHBRjim4Dth5BEBbCPo5raPHO36Jb43QHBKQRjcn97DLYPbadAIVe0UeXV8AYVe2NoJdgIFacNOYbkWG1UMEIJVp9itCpoWuJ7z-lw3pdd91HrJF3IIavH6Iaojc0kIJ5aXd6FNTzvMcNUqg9WibvOTQo_8K5vKTuRUybGvp_QTOniT4Fw8OPEmYqej3MLc7ZwIUqKTBExuxIiDT2uoTWb90sPf5BbFIfS2J1eMBxstwgRoFCwCdgZFJC-Zg3u9yInzYOYUZKS4bqfFWt4Xvhnbdis5AbhxMulTfZwwlcpS_0q9-mh0MsFb4sV1oT1eRqrHj9HU2oqBZYql40lwEPzWuKgZ7UEyjnI5ai8RI-_RLTYk76S2EXvk4yHlYCtzxDU7JTIpEywWLIozwQQOK1nMHyJM6fk4O2YfgSc_nS8fKBWFszfubIiaKWjmiRP2z4szEgWc-4GiEQxgewI94dPVAIrFxsjNCMyfskMpIUxAE3z5gxKX_eTpP2LlwD0jYdHqkfl9JfBhMApb1oxGlXn3oDPb4tN3S_Bc-keVSA2G5GhpKmE7zJ8uEq2X2h5wNFt4OC2loTJQebWgoruuOfgn5NhrA5mITRgjrplPsmy3GY-vQDzHcfvq2pZ0s9UWxyZeFs9sfTg1TDoz-9gcJmePxUBhEziYxeqRqgi7VK2PPU4X4ZIfh7P1Ea0XZrqzb1WX21QartxrO9M1KcXafe9pJoRl32dASMuoKS3hNFPdtfSqgoVM8XsBHwkzw70JiER5medI7pdp0xhWsrsFyMQYZsWznKa4UIYmY1ekLardDPadqX2DvoNO22bAAE3w9Jv139rnlrpVngs9mclAUSxXMGRBN6cMX6PhWHIFJcdSlzoA_Hi0]--></g></svg>