<?xml version="1.0" encoding="us-ascii" standalone="no"?><svg xmlns="http://www.w3.org/2000/svg" xmlns:xlink="http://www.w3.org/1999/xlink" contentStyleType="text/css" height="490px" preserveAspectRatio="none" style="width:781px;height:490px;background:#FFFFFF;" version="1.1" viewBox="0 0 781 490" width="781px" zoomAndPan="magnify"><defs/><g><line style="stroke:#181818;stroke-width:0.5;stroke-dasharray:5.0,5.0;" x1="27" x2="27" y1="84.0679" y2="407.1281"/><line style="stroke:#181818;stroke-width:0.5;stroke-dasharray:5.0,5.0;" x1="135" x2="135" y1="84.0679" y2="407.1281"/><line style="stroke:#181818;stroke-width:0.5;stroke-dasharray:5.0,5.0;" x1="256.5" x2="256.5" y1="84.0679" y2="407.1281"/><line style="stroke:#181818;stroke-width:0.5;stroke-dasharray:5.0,5.0;" x1="394.5" x2="394.5" y1="84.0679" y2="407.1281"/><line style="stroke:#181818;stroke-width:0.5;stroke-dasharray:5.0,5.0;" x1="558.5" x2="558.5" y1="84.0679" y2="407.1281"/><line style="stroke:#181818;stroke-width:0.5;stroke-dasharray:5.0,5.0;" x1="717.5" x2="717.5" y1="84.0679" y2="407.1281"/><text fill="#000000" font-family="sans-serif" font-size="14" lengthAdjust="spacing" textLength="39" x="5" y="79.9659">Client</text><ellipse cx="27.5" cy="13.5" fill="#E2E2F0" rx="8" ry="8" style="stroke:#181818;stroke-width:0.5;"/><path d="M27.5,21.5 L27.5,48.5 M14.5,29.5 L40.5,29.5 M27.5,48.5 L14.5,63.5 M27.5,48.5 L40.5,63.5 " fill="none" style="stroke:#181818;stroke-width:0.5;"/><text fill="#000000" font-family="sans-serif" font-size="14" lengthAdjust="spacing" textLength="39" x="5" y="421.094">Client</text><ellipse cx="27.5" cy="433.696" fill="#E2E2F0" rx="8" ry="8" style="stroke:#181818;stroke-width:0.5;"/><path d="M27.5,441.696 L27.5,468.696 M14.5,449.696 L40.5,449.696 M27.5,468.696 L14.5,483.696 M27.5,468.696 L40.5,483.696 " fill="none" style="stroke:#181818;stroke-width:0.5;"/><rect fill="#E2E2F0" height="33.0679" rx="2.5" ry="2.5" style="stroke:#181818;stroke-width:0.5;" width="83" x="94" y="50"/><text fill="#000000" font-family="sans-serif" font-size="14" lengthAdjust="spacing" textLength="69" x="101" y="71.9659">API / main</text><rect fill="#E2E2F0" height="33.0679" rx="2.5" ry="2.5" style="stroke:#181818;stroke-width:0.5;" width="83" x="94" y="406.1281"/><text fill="#000000" font-family="sans-serif" font-size="14" lengthAdjust="spacing" textLength="69" x="101" y="428.094">API / main</text><rect fill="#E2E2F0" height="33.0679" rx="2.5" ry="2.5" style="stroke:#181818;stroke-width:0.5;" width="106" x="203.5" y="50"/><text fill="#000000" font-family="sans-serif" font-size="14" lengthAdjust="spacing" textLength="92" x="210.5" y="71.9659">HTTP Handler</text><rect fill="#E2E2F0" height="33.0679" rx="2.5" ry="2.5" style="stroke:#181818;stroke-width:0.5;" width="106" x="203.5" y="406.1281"/><text fill="#000000" font-family="sans-serif" font-size="14" lengthAdjust="spacing" textLength="92" x="210.5" y="428.094">HTTP Handler</text><rect fill="#E2E2F0" height="33.0679" rx="2.5" ry="2.5" style="stroke:#181818;stroke-width:0.5;" width="151" x="319.5" y="50"/><text fill="#000000" font-family="sans-serif" font-size="14" lengthAdjust="spacing" textLength="137" x="326.5" y="71.9659">Application UseCase</text><rect fill="#E2E2F0" height="33.0679" rx="2.5" ry="2.5" style="stroke:#181818;stroke-width:0.5;" width="151" x="319.5" y="406.1281"/><text fill="#000000" font-family="sans-serif" font-size="14" lengthAdjust="spacing" textLength="137" x="326.5" y="428.094">Application UseCase</text><rect fill="#E2E2F0" height="33.0679" rx="2.5" ry="2.5" style="stroke:#181818;stroke-width:0.5;" width="157" x="480.5" y="50"/><text fill="#000000" font-family="sans-serif" font-size="14" lengthAdjust="spacing" textLength="143" x="487.5" y="71.9659">Repository (interface)</text><rect fill="#E2E2F0" height="33.0679" rx="2.5" ry="2.5" style="stroke:#181818;stroke-width:0.5;" width="157" x="480.5" y="406.1281"/><text fill="#000000" font-family="sans-serif" font-size="14" lengthAdjust="spacing" textLength="143" x="487.5" y="428.094">Repository (interface)</text><rect fill="#E2E2F0" height="33.0679" rx="2.5" ry="2.5" style="stroke:#181818;stroke-width:0.5;" width="115" x="660.5" y="50"/><text fill="#000000" font-family="sans-serif" font-size="14" lengthAdjust="spacing" textLength="101" x="667.5" y="71.9659">SQLite Adapter</text><rect fill="#E2E2F0" height="33.0679" rx="2.5" ry="2.5" style="stroke:#181818;stroke-width:0.5;" width="115" x="660.5" y="406.1281"/><text fill="#000000" font-family="sans-serif" font-size="14" lengthAdjust="spacing" textLength="101" x="667.5" y="428.094">SQLite Adapter</text><polygon fill="#181818" points="123.5,113.7739,133.5,117.7739,123.5,121.7739,127.5,117.7739" style="stroke:#181818;stroke-width:1.0;"/><line style="stroke:#181818;stroke-width:1.0;" x1="27.5" x2="129.5" y1="117.7739" y2="117.7739"/><text fill="#000000" font-family="sans-serif" font-size="13" lengthAdjust="spacing" textLength="84" x="34.5" y="111.9649">POST /entities</text><polygon fill="#181818" points="244.5,145.4799,254.5,149.4799,244.5,153.4799,248.5,149.4799" style="stroke:#181818;stroke-width:1.0;"/><line style="stroke:#181818;stroke-width:1.0;" x1="135.5" x2="250.5" y1="149.4799" y2="149.4799"/><text fill="#000000" font-family="sans-serif" font-size="13" lengthAdjust="spacing" textLength="97" x="142.5" y="143.6709">Handle(request)</text><polygon fill="#181818" points="383,177.186,393,181.186,383,185.186,387,181.186" style="stroke:#181818;stroke-width:1.0;"/><line style="stroke:#181818;stroke-width:1.0;" x1="256.5" x2="389" y1="181.186" y2="181.186"/><text fill="#000000" font-family="sans-serif" font-size="13" lengthAdjust="spacing" textLength="76" x="263.5" y="175.377">Execute(dto)</text><polygon fill="#181818" points="547,208.892,557,212.892,547,216.892,551,212.892" style="stroke:#181818;stroke-width:1.0;"/><line style="stroke:#181818;stroke-width:1.0;" x1="395" x2="553" y1="212.892" y2="212.892"/><text fill="#000000" font-family="sans-serif" font-size="13" lengthAdjust="spacing" textLength="71" x="402" y="207.083">Save(entity)</text><polygon fill="#181818" points="706,258.304,716,262.304,706,266.304,710,262.304" style="stroke:#181818;stroke-width:1.0;"/><line style="stroke:#181818;stroke-width:1.0;" x1="559" x2="712" y1="262.304" y2="262.304"/><text fill="#000000" font-family="sans-serif" font-size="13" lengthAdjust="spacing" textLength="135" x="566" y="238.789">"INSERT INTO table (...)</text><text fill="#000000" font-family="sans-serif" font-size="13" lengthAdjust="spacing" textLength="72" x="566" y="256.495">VALUES (...)"</text><polygon fill="#181818" points="570,290.01,560,294.01,570,298.01,566,294.01" style="stroke:#181818;stroke-width:1.0;"/><line style="stroke:#181818;stroke-width:1.0;stroke-dasharray:2.0,2.0;" x1="564" x2="717" y1="294.01" y2="294.01"/><text fill="#000000" font-family="sans-serif" font-size="13" lengthAdjust="spacing" textLength="34" x="576" y="288.201">result</text><polygon fill="#181818" points="267.5,321.716,257.5,325.716,267.5,329.716,263.5,325.716" style="stroke:#181818;stroke-width:1.0;"/><line style="stroke:#181818;stroke-width:1.0;stroke-dasharray:2.0,2.0;" x1="261.5" x2="394" y1="325.716" y2="325.716"/><text fill="#000000" font-family="sans-serif" font-size="13" lengthAdjust="spacing" textLength="45" x="273.5" y="319.907">success</text><polygon fill="#181818" points="146.5,353.4221,136.5,357.4221,146.5,361.4221,142.5,357.4221" style="stroke:#181818;stroke-width:1.0;"/><line style="stroke:#181818;stroke-width:1.0;stroke-dasharray:2.0,2.0;" x1="140.5" x2="255.5" y1="357.4221" y2="357.4221"/><text fill="#000000" font-family="sans-serif" font-size="13" lengthAdjust="spacing" textLength="71" x="152.5" y="351.6131">201 Created</text><polygon fill="#181818" points="38.5,385.1281,28.5,389.1281,38.5,393.1281,34.5,389.1281" style="stroke:#181818;stroke-width:1.0;"/><line style="stroke:#181818;stroke-width:1.0;stroke-dasharray:2.0,2.0;" x1="32.5" x2="134.5" y1="389.1281" y2="389.1281"/><text fill="#000000" font-family="sans-serif" font-size="13" lengthAdjust="spacing" textLength="71" x="44.5" y="383.3191">201 Created</text><!--SRC=[NP1DRi8m44RtFiKecoOBeEqoYqg88e54WPBGLJTJPzfQSXnZEmYkLAcdwCLg9nP_EtlcUUPzleDdWLy6QuIAmDAk_VjHN21eYKB1Mg9osvS5380tjKRtzxid2O6i_GDDgkfv2tHmP1HQnf2xni142b8EVAUrP9X6umGNsi-3PBoUmmXglo49WE_lRv5PMQvXXggIP3hekp_V3D9Q2evED0gsbYPeAOahkJzVmnlIZHNUxGYfKDxs4pbb7MzywnekNXV24Omhr2uQs9tq9SP27XWyHUqSrgkYX94FAvmWo_fo0A9o7dEandylMPUns0XCDCrXUY3UEaehrsGiLWCGr78eS4zfj-AOiL3g13gX79BvifXkIfWlonKu_904wN0upDxLstYndHRzBG7MFu31QQmXsqftNdSfRLlEoTgpx4Nan_i7c1X2HzKfRn_cklaF]--></g></svg>